<?xml version="1.0" standalone="no"?>
<!DOCTYPE svg PUBLIC "-//W3C//DTD SVG 20010904//EN"
 "http://www.w3.org/TR/2001/REC-SVG-20010904/DTD/svg10.dtd">
<svg version="1.0" xmlns="http://www.w3.org/2000/svg"
 width="640.000000pt" height="1280.000000pt" viewBox="0 0 640.000000 1280.000000"
 preserveAspectRatio="xMidYMid meet">
<metadata>
Created by potrace 1.15, written by Peter Selinger 2001-2017
</metadata>
<g transform="translate(0.000000,1280.000000) scale(0.100000,-0.100000)"
fill="#bb7a3c" stroke="none">
<path d="M1625 12781 c-522 -156 -905 -679 -990 -1351 -13 -103 -16 -189 -12
-427 4 -292 5 -300 35 -418 79 -312 191 -537 366 -739 76 -89 267 -239 360
-285 45 -22 140 -62 211 -89 150 -57 258 -109 303 -147 48 -40 142 -170 190
-262 133 -256 215 -609 247 -1064 34 -494 37 -1274 5 -1769 -28 -448 -40
-2109 -20 -2805 33 -1154 111 -2125 234 -2900 42 -260 63 -343 118 -447 l40
-78 43 0 c38 0 47 5 73 38 42 52 74 121 112 237 38 116 45 128 74 119 39 -12
54 -35 76 -117 34 -132 39 -143 76 -181 44 -45 91 -49 147 -11 49 34 62 63
112 240 123 435 200 874 305 1745 22 184 51 416 65 515 49 368 72 969 85 2240
20 2082 35 2508 115 3306 52 517 72 615 165 800 131 260 399 545 574 611 109
42 304 141 395 203 398 266 524 472 615 1005 22 134 24 167 22 430 -2 266 -4
294 -29 411 -105 499 -361 882 -707 1058 -165 84 -213 96 -380 96 -119 -1
-160 -5 -230 -24 -289 -77 -534 -265 -731 -559 -199 -296 -293 -650 -292
-1092 1 -265 31 -453 109 -689 103 -311 264 -558 505 -775 l50 -45 -42 -43
c-160 -164 -285 -366 -374 -602 -100 -269 -154 -596 -185 -1111 -5 -93 -14
-253 -20 -355 -11 -184 -35 -445 -46 -508 -10 -55 -70 -64 -149 -24 -16 8 -87
72 -156 141 -77 77 -142 134 -167 145 -51 23 -49 16 -57 276 -30 1033 -167
1583 -506 2033 -73 97 -81 124 -55 175 16 30 78 91 143 141 51 39 193 209 256
306 99 155 171 345 208 551 26 143 31 468 10 629 -40 313 -133 668 -220 837
-181 354 -416 573 -678 632 -101 23 -317 21 -398 -3z m326 -95 c164 -35 334
-147 460 -304 134 -166 276 -519 343 -852 37 -185 49 -305 49 -500 0 -289 -28
-458 -102 -615 -82 -172 -225 -339 -470 -545 l-113 -95 7 -55 c8 -77 59 -175
164 -318 220 -301 345 -657 411 -1175 18 -147 32 -308 66 -787 9 -131 21 -231
27 -240 56 -72 164 -181 340 -342 337 -309 465 -454 563 -632 37 -68 37 -70
45 -220 30 -579 39 -1634 19 -2134 -25 -596 -82 -1254 -146 -1684 -7 -54 -14
-103 -14 -110 0 -6 -2 -9 -5 -6 -5 4 12 520 35 1083 40 978 59 1990 41 2215
-17 216 -32 280 -67 280 -28 0 -38 -43 -36 -158 2 -86 -1 -119 -13 -143 l-16
-30 -42 45 c-24 25 -68 57 -102 73 -56 26 -69 28 -185 28 -156 0 -201 -12
-257 -71 -46 -47 -83 -144 -83 -215 0 -157 104 -336 228 -391 93 -42 235 -18
315 52 34 30 59 68 101 155 31 63 59 115 62 115 8 0 -3 -901 -16 -1385 -24
-860 -67 -1605 -131 -2290 -16 -176 -39 -421 -49 -545 -23 -260 -34 -345 -61
-447 -32 -120 -48 -153 -75 -153 -35 0 -52 34 -101 203 -268 923 -402 1876
-385 2729 l3 147 37 23 c36 22 42 23 260 20 218 -3 225 -2 276 21 30 14 63 39
76 57 59 83 87 337 73 666 -8 210 -10 224 -33 257 -32 47 -91 84 -154 97 -28
5 -112 14 -186 20 -151 10 -215 26 -266 65 -70 53 -79 93 -108 445 -28 332
-37 514 -76 1460 -35 846 -79 1318 -162 1740 -99 510 -179 761 -320 1008 -133
234 -217 303 -518 427 -156 64 -234 104 -305 158 -95 71 -305 285 -363 370
-265 387 -322 951 -162 1585 22 91 40 134 89 220 190 331 472 584 751 673 67
22 190 24 281 5z m2819 -91 c173 -36 343 -138 510 -305 94 -94 110 -116 156
-210 158 -322 224 -640 211 -1015 -7 -197 -25 -327 -73 -515 -98 -388 -317
-611 -880 -898 -314 -160 -388 -229 -577 -543 -81 -134 -110 -214 -162 -440
-80 -346 -112 -693 -135 -1449 -16 -532 -32 -784 -51 -796 -20 -12 -49 10 -90
69 -24 34 -74 91 -111 125 -87 83 -94 103 -68 217 42 194 52 325 80 1073 20
506 73 779 210 1076 61 133 112 197 301 377 208 199 239 237 239 293 0 23 -8
55 -18 71 -19 31 -28 36 -172 103 -186 85 -337 248 -460 492 -92 184 -128 315
-155 570 -42 393 13 774 152 1055 65 129 144 236 280 376 105 107 148 144 201
172 87 46 221 84 353 101 141 18 176 19 259 1z m-2277 -6422 c4 -136 12 -363
17 -503 6 -140 10 -423 9 -627 l-2 -373 41 -83 c88 -177 255 -278 437 -264 39
3 77 8 86 12 13 5 18 -2 22 -32 9 -49 9 -243 0 -515 l-6 -217 -31 -11 c-17 -6
-98 -15 -181 -19 -194 -11 -215 -19 -244 -97 -36 -94 -45 -196 -31 -352 6 -75
14 -140 16 -144 3 -4 9 -142 14 -305 14 -438 40 -635 190 -1408 115 -596 124
-649 106 -683 -7 -15 -26 -71 -41 -125 -32 -114 -72 -183 -111 -193 -16 -4
-29 -2 -34 6 -4 7 -24 94 -43 194 -159 801 -227 1571 -267 3021 -5 204 -15
537 -21 740 -15 524 -15 552 -1 925 7 184 17 481 22 660 11 356 29 652 40 645
4 -2 10 -116 13 -252z m745 -819 c43 -30 17 -113 -65 -204 -50 -55 -126 -106
-144 -95 -20 13 -39 73 -39 122 0 55 26 118 61 150 45 40 147 55 187 27z m166
-186 c10 -13 16 -43 16 -73 0 -103 -100 -215 -193 -215 -38 0 -102 23 -113 41
-5 8 254 268 268 269 4 0 14 -10 22 -22z m-132 -915 c27 -32 30 -56 28 -314
-1 -280 -10 -352 -46 -357 -11 -2 -29 7 -40 19 -17 19 -20 44 -27 278 -7 270
-6 302 20 357 18 37 42 43 65 17z"/>
<path d="M1660 12535 c-203 -41 -341 -155 -485 -399 -173 -294 -230 -526 -229
-936 1 -255 19 -410 78 -644 30 -118 40 -143 87 -212 168 -252 313 -390 478
-456 49 -20 74 -22 206 -23 166 0 210 11 324 77 75 44 227 196 288 288 162
242 224 461 224 790 -1 228 -17 351 -107 805 -43 216 -171 441 -327 573 -70
60 -196 125 -275 141 -69 14 -180 13 -262 -4z m265 -186 c161 -60 312 -222
432 -464 101 -202 163 -505 164 -789 0 -226 -26 -372 -95 -541 -66 -163 -201
-336 -328 -419 -157 -103 -368 -107 -563 -11 -90 44 -183 120 -234 192 -57 79
-149 366 -198 613 -19 101 -26 454 -12 625 27 337 190 629 417 748 65 34 144
61 207 71 53 8 155 -4 210 -25z"/>
<path d="M4330 12417 c-171 -58 -311 -205 -445 -468 -155 -304 -206 -787 -124
-1194 40 -200 151 -481 224 -571 47 -58 171 -138 330 -215 l130 -63 113 -4
c179 -7 316 31 466 129 247 163 407 432 436 737 30 314 32 364 20 511 -34 422
-155 711 -408 973 -162 167 -218 188 -506 188 -150 0 -179 -3 -236 -23z m369
-188 c162 -19 256 -69 356 -187 149 -178 241 -394 286 -677 31 -188 8 -669
-38 -805 -74 -221 -246 -373 -498 -442 -105 -28 -308 -31 -405 -5 -125 33
-225 90 -310 175 -103 103 -130 162 -176 372 -104 481 -115 685 -48 903 14 45
36 123 50 172 68 245 218 433 398 497 43 16 70 18 176 13 69 -3 163 -10 209
-16z"/>
</g>
</svg>
